# MagicaVoxel @ Ephtracy

# group
o 

# material
mtllib trailer.vox.mtl
usemtl palette

# normals
vn -1 0 0
vn 1 0 0
vn 0 0 1
vn 0 0 -1
vn 0 -1 0
vn 0 1 0

# texcoords
vt 0.939453 0.5
vt 0.943359 0.5
vt 0.947266 0.5

# verts
v -1.5 1 1.5
v -1.5 1 0.5
v -1.5 1 -0.5
v -1.5 1 -1.5
v -1.5 1.3 1.2
v -1.5 1.3 0.8
v -1.5 1.3 -0.8
v -1.5 1.3 -1.2
v -1.5 1.7 1.2
v -1.5 1.7 0.8
v -1.5 1.7 -0.8
v -1.5 1.7 -1.2
v -1.5 2 1.5
v -1.5 2 0.5
v -1.5 2 -0.5
v -1.5 2 -1.5
v -1.5 2.2 2
v -1.5 2.2 -2
v -1.5 2.4 2
v -1.5 2.4 -2
v -1 1.4 2
v -1 1.4 1.5
v -1 1.4 0.5
v -1 1.4 -0.5
v -1 1.4 -1.5
v -1 1.4 -2
v -1 2 1.5
v -1 2 0.5
v -1 2 -0.5
v -1 2 -1.5
v -1 2.2 2
v -1 2.2 -2
v 1 1 1.5
v 1 1 0.5
v 1 1 -0.5
v 1 1 -1.5
v 1 1.4 1.5
v 1 1.4 0.5
v 1 1.4 -0.5
v 1 1.4 -1.5
v -1 1 1.5
v -1 1 0.5
v -1 1 -0.5
v -1 1 -1.5
v -1 1.4 1.5
v -1 1.4 0.5
v -1 1.4 -0.5
v -1 1.4 -1.5
v 1 1.4 2
v 1 1.4 1.5
v 1 1.4 0.5
v 1 1.4 -0.5
v 1 1.4 -1.5
v 1 1.4 -2
v 1 2 1.5
v 1 2 0.5
v 1 2 -0.5
v 1 2 -1.5
v 1 2.2 2
v 1 2.2 -2
v 1.5 1 1.5
v 1.5 1 0.5
v 1.5 1 -0.5
v 1.5 1 -1.5
v 1.5 1.3 1.2
v 1.5 1.3 0.8
v 1.5 1.3 -0.8
v 1.5 1.3 -1.2
v 1.5 1.7 1.2
v 1.5 1.7 0.8
v 1.5 1.7 -0.8
v 1.5 1.7 -1.2
v 1.5 2 1.5
v 1.5 2 0.5
v 1.5 2 -0.5
v 1.5 2 -1.5
v 1.5 2.2 2
v 1.5 2.2 -2
v 1.5 2.4 2
v 1.5 2.4 -2
v -1.5 2.2 2
v -1.5 2.4 2
v -1 1.4 2
v -1 2.2 2
v 1 1.4 2
v 1 2.2 2
v 1.5 2.2 2
v 1.5 2.4 2
v -1.5 1 1.5
v -1.5 2 1.5
v -1 1 1.5
v -1 1.4 1.5
v -1 2 1.5
v 1 1 1.5
v 1 1.4 1.5
v 1 2 1.5
v 1.5 1 1.5
v 1.5 2 1.5
v -1.5 1 -0.5
v -1.5 2 -0.5
v -1 1 -0.5
v -1 1.4 -0.5
v -1 2 -0.5
v 1 1 -0.5
v 1 1.4 -0.5
v 1 2 -0.5
v 1.5 1 -0.5
v 1.5 2 -0.5
v -1.5 1 0.5
v -1.5 2 0.5
v -1 1 0.5
v -1 1.4 0.5
v -1 2 0.5
v 1 1 0.5
v 1 1.4 0.5
v 1 2 0.5
v 1.5 1 0.5
v 1.5 2 0.5
v -1.5 1 -1.5
v -1.5 2 -1.5
v -1 1 -1.5
v -1 1.4 -1.5
v -1 2 -1.5
v 1 1 -1.5
v 1 1.4 -1.5
v 1 2 -1.5
v 1.5 1 -1.5
v 1.5 2 -1.5
v -1.5 2.2 -2
v -1.5 2.4 -2
v -1 1.4 -2
v -1 2.2 -2
v 1 1.4 -2
v 1 2.2 -2
v 1.5 2.2 -2
v 1.5 2.4 -2
v -1.5 1 1.5
v -1 1 1.5
v 1 1 1.5
v 1.5 1 1.5
v -1.5 1 0.5
v -1 1 0.5
v 1 1 0.5
v 1.5 1 0.5
v -1.5 1 -0.5
v -1 1 -0.5
v 1 1 -0.5
v 1.5 1 -0.5
v -1.5 1 -1.5
v -1 1 -1.5
v 1 1 -1.5
v 1.5 1 -1.5
v -1 1.4 2
v 1 1.4 2
v -1 1.4 1.5
v 1 1.4 1.5
v -1 1.4 0.5
v 1 1.4 0.5
v -1 1.4 -0.5
v 1 1.4 -0.5
v -1 1.4 -1.5
v 1 1.4 -1.5
v -1 1.4 -2
v 1 1.4 -2
v -1.5 2.2 2
v -1 2.2 2
v 1 2.2 2
v 1.5 2.2 2
v -1.5 2.2 -2
v -1 2.2 -2
v 1 2.2 -2
v 1.5 2.2 -2
v -1.5 2 1.5
v -1 2 1.5
v 1 2 1.5
v 1.5 2 1.5
v -1.5 2 0.5
v -1 2 0.5
v 1 2 0.5
v 1.5 2 0.5
v -1.5 2 -0.5
v -1 2 -0.5
v 1 2 -0.5
v 1.5 2 -0.5
v -1.5 2 -1.5
v -1 2 -1.5
v 1 2 -1.5
v 1.5 2 -1.5
v -1.5 2.4 2
v 1.5 2.4 2
v -1.5 2.4 -2
v 1.5 2.4 -2

# faces
f 5/1/1 2/1/1 1/1/1
f 6/1/1 2/1/1 5/1/1
f 7/1/1 4/1/1 3/1/1
f 8/1/1 4/1/1 7/1/1
f 9/1/1 5/1/1 1/1/1
f 9/2/1 6/2/1 5/2/1
f 10/1/1 2/1/1 6/1/1
f 10/2/1 6/2/1 9/2/1
f 11/2/1 8/2/1 7/2/1
f 11/1/1 7/1/1 3/1/1
f 12/1/1 4/1/1 8/1/1
f 12/2/1 8/2/1 11/2/1
f 13/1/1 9/1/1 1/1/1
f 13/1/1 10/1/1 9/1/1
f 14/1/1 2/1/1 10/1/1
f 14/1/1 10/1/1 13/1/1
f 15/1/1 11/1/1 3/1/1
f 15/1/1 12/1/1 11/1/1
f 16/1/1 4/1/1 12/1/1
f 16/1/1 12/1/1 15/1/1
f 19/3/1 18/3/1 17/3/1
f 20/3/1 18/3/1 19/3/1
f 27/3/1 22/3/1 21/3/1
f 28/3/1 24/3/1 23/3/1
f 29/3/1 24/3/1 28/3/1
f 30/3/1 26/3/1 25/3/1
f 31/3/1 29/3/1 28/3/1
f 31/3/1 30/3/1 29/3/1
f 31/3/1 27/3/1 21/3/1
f 31/3/1 28/3/1 27/3/1
f 32/3/1 26/3/1 30/3/1
f 32/3/1 30/3/1 31/3/1
f 37/1/1 34/1/1 33/1/1
f 38/1/1 34/1/1 37/1/1
f 39/1/1 36/1/1 35/1/1
f 40/1/1 36/1/1 39/1/1
f 41/1/2 42/1/2 45/1/2
f 45/1/2 42/1/2 46/1/2
f 43/1/2 44/1/2 47/1/2
f 47/1/2 44/1/2 48/1/2
f 49/3/2 50/3/2 55/3/2
f 51/3/2 52/3/2 56/3/2
f 56/3/2 52/3/2 57/3/2
f 53/3/2 54/3/2 58/3/2
f 56/3/2 57/3/2 59/3/2
f 57/3/2 58/3/2 59/3/2
f 49/3/2 55/3/2 59/3/2
f 55/3/2 56/3/2 59/3/2
f 58/3/2 54/3/2 60/3/2
f 59/3/2 58/3/2 60/3/2
f 61/1/2 62/1/2 65/1/2
f 65/1/2 62/1/2 66/1/2
f 63/1/2 64/1/2 67/1/2
f 67/1/2 64/1/2 68/1/2
f 61/1/2 65/1/2 69/1/2
f 65/2/2 66/2/2 69/2/2
f 66/1/2 62/1/2 70/1/2
f 69/2/2 66/2/2 70/2/2
f 67/2/2 68/2/2 71/2/2
f 63/1/2 67/1/2 71/1/2
f 68/1/2 64/1/2 72/1/2
f 71/2/2 68/2/2 72/2/2
f 61/1/2 69/1/2 73/1/2
f 69/1/2 70/1/2 73/1/2
f 70/1/2 62/1/2 74/1/2
f 73/1/2 70/1/2 74/1/2
f 63/1/2 71/1/2 75/1/2
f 71/1/2 72/1/2 75/1/2
f 72/1/2 64/1/2 76/1/2
f 75/1/2 72/1/2 76/1/2
f 77/3/2 78/3/2 79/3/2
f 79/3/2 78/3/2 80/3/2
f 84/3/3 82/3/3 81/3/3
f 85/3/3 84/3/3 83/3/3
f 86/3/3 82/3/3 84/3/3
f 86/3/3 84/3/3 85/3/3
f 87/3/3 82/3/3 86/3/3
f 88/3/3 82/3/3 87/3/3
f 91/1/3 90/1/3 89/1/3
f 92/1/3 90/1/3 91/1/3
f 93/1/3 90/1/3 92/1/3
f 97/1/3 95/1/3 94/1/3
f 97/1/3 96/1/3 95/1/3
f 98/1/3 96/1/3 97/1/3
f 101/1/3 100/1/3 99/1/3
f 102/1/3 100/1/3 101/1/3
f 103/1/3 100/1/3 102/1/3
f 107/1/3 105/1/3 104/1/3
f 107/1/3 106/1/3 105/1/3
f 108/1/3 106/1/3 107/1/3
f 109/1/4 110/1/4 111/1/4
f 111/1/4 110/1/4 112/1/4
f 112/1/4 110/1/4 113/1/4
f 114/1/4 115/1/4 117/1/4
f 115/1/4 116/1/4 117/1/4
f 117/1/4 116/1/4 118/1/4
f 119/1/4 120/1/4 121/1/4
f 121/1/4 120/1/4 122/1/4
f 122/1/4 120/1/4 123/1/4
f 124/1/4 125/1/4 127/1/4
f 125/1/4 126/1/4 127/1/4
f 127/1/4 126/1/4 128/1/4
f 129/3/4 130/3/4 132/3/4
f 131/3/4 132/3/4 133/3/4
f 132/3/4 130/3/4 134/3/4
f 133/3/4 132/3/4 134/3/4
f 134/3/4 130/3/4 135/3/4
f 135/3/4 130/3/4 136/3/4
f 141/1/5 138/1/5 137/1/5
f 142/1/5 138/1/5 141/1/5
f 143/1/5 140/1/5 139/1/5
f 144/1/5 140/1/5 143/1/5
f 149/1/5 146/1/5 145/1/5
f 150/1/5 146/1/5 149/1/5
f 151/1/5 148/1/5 147/1/5
f 152/1/5 148/1/5 151/1/5
f 155/3/5 154/3/5 153/3/5
f 156/3/5 154/3/5 155/3/5
f 157/3/5 156/3/5 155/3/5
f 158/3/5 156/3/5 157/3/5
f 159/3/5 158/3/5 157/3/5
f 160/3/5 158/3/5 159/3/5
f 161/3/5 160/3/5 159/3/5
f 162/3/5 160/3/5 161/3/5
f 163/3/5 162/3/5 161/3/5
f 164/3/5 162/3/5 163/3/5
f 169/3/5 166/3/5 165/3/5
f 170/3/5 166/3/5 169/3/5
f 171/3/5 168/3/5 167/3/5
f 172/3/5 168/3/5 171/3/5
f 173/1/6 174/1/6 177/1/6
f 177/1/6 174/1/6 178/1/6
f 175/1/6 176/1/6 179/1/6
f 179/1/6 176/1/6 180/1/6
f 181/1/6 182/1/6 185/1/6
f 185/1/6 182/1/6 186/1/6
f 183/1/6 184/1/6 187/1/6
f 187/1/6 184/1/6 188/1/6
f 189/3/6 190/3/6 191/3/6
f 191/3/6 190/3/6 192/3/6
